<svg xmlns="http://www.w3.org/2000/svg" width="64" height="64" viewBox="0 0 64 64">
  <g id="Group_3297" data-name="Group 3297" transform="translate(-88)">
    <path id="Icon_awesome-car-alt" data-name="Icon awesome-car-alt" d="M19.8,11.2,19.3,9.928l-.9-2.25A5.032,5.032,0,0,0,13.7,4.5H7.968A5.032,5.032,0,0,0,3.273,7.678l-.9,2.25L1.866,11.2A2.883,2.883,0,0,0,0,13.89v2.167A2.866,2.866,0,0,0,.722,17.95v2.441a1.445,1.445,0,0,0,1.445,1.445H3.612a1.445,1.445,0,0,0,1.445-1.445V18.946H16.613v1.445a1.445,1.445,0,0,0,1.445,1.445H19.5a1.445,1.445,0,0,0,1.445-1.445V17.95a2.864,2.864,0,0,0,.722-1.893V13.89A2.883,2.883,0,0,0,19.8,11.2ZM5.956,8.751A2.167,2.167,0,0,1,7.968,7.389H13.7a2.167,2.167,0,0,1,2.012,1.362l.9,2.25H5.056l.9-2.25Zm-2.344,7.3a1.363,1.363,0,0,1-1.445-1.44,1.363,1.363,0,0,1,1.445-1.44,2.779,2.779,0,0,1,2.167,2.16C5.778,16.192,4.478,16.048,3.612,16.048Zm14.446,0c-.867,0-2.167.144-2.167-.72a2.779,2.779,0,0,1,2.167-2.16,1.363,1.363,0,0,1,1.445,1.44A1.363,1.363,0,0,1,18.058,16.048Z" transform="translate(109 18.5)" fill="#707070"/>
    <rect id="Rectangle_2353" data-name="Rectangle 2353" width="64" height="64" transform="translate(88)" fill="none"/>
  </g>
</svg>
