<svg xmlns="http://www.w3.org/2000/svg" width="64" height="64" viewBox="0 0 64 64">
  <g id="Group_3295" data-name="Group 3295" transform="translate(-221)">
    <g id="Icon_ionic-md-wallet" data-name="Icon ionic-md-wallet" transform="translate(239.504 18.5)">
      <path id="Path_19481" data-name="Path 19481" d="M10.788,17.787V9.613a2.045,2.045,0,0,1,2.046-2.046h9.439V6.546A2.038,2.038,0,0,0,20.246,4.5H5.483A2.071,2.071,0,0,0,3.375,6.512V20.887A2.071,2.071,0,0,0,5.483,22.9H20.241a2.035,2.035,0,0,0,2.027-2.046V19.833H12.829A2.044,2.044,0,0,1,10.788,17.787Z" transform="translate(0)" fill="#1f6e1a"/>
      <path id="Path_19482" data-name="Path 19482" d="M17.227,12.72v6.708a.769.769,0,0,0,.767.767h8.96a.769.769,0,0,0,.767-.767V12.72a.769.769,0,0,0-.767-.767h-8.96A.769.769,0,0,0,17.227,12.72ZM20.921,17.6a1.534,1.534,0,1,1,1.433-1.433A1.534,1.534,0,0,1,20.921,17.6Z" transform="translate(-4.412 -2.374)" fill="#1f6e1a"/>
    </g>
    <rect id="Rectangle_2351" data-name="Rectangle 2351" width="64" height="64" transform="translate(221)" fill="none"/>
  </g>
</svg>
