<svg xmlns="http://www.w3.org/2000/svg" width="64" height="64" viewBox="0 0 64 64">
  <g id="Group_3298" data-name="Group 3298" transform="translate(-23)">
    <path id="Icon_awesome-user-alt" data-name="Icon awesome-user-alt" d="M9.46,10.643A5.321,5.321,0,1,0,4.139,5.321,5.323,5.323,0,0,0,9.46,10.643Zm4.73,1.183H12.154a6.433,6.433,0,0,1-5.388,0H4.73A4.73,4.73,0,0,0,0,16.555v.591A1.774,1.774,0,0,0,1.774,18.92H17.147a1.774,1.774,0,0,0,1.774-1.774v-.591A4.73,4.73,0,0,0,14.19,11.825Z" transform="translate(45.415 23)" fill="#707070"/>
    <rect id="Rectangle_2354" data-name="Rectangle 2354" width="64" height="64" transform="translate(23)" fill="none"/>
  </g>
</svg>
