<svg xmlns="http://www.w3.org/2000/svg" width="22.761" height="18.92" viewBox="0 0 22.761 18.92">
  <path id="Icon_awesome-store" data-name="Icon awesome-store" d="M22.248,4.383,19.85.554a1.183,1.183,0,0,0-1-.554H3.919a1.183,1.183,0,0,0-1,.554L.519,4.383A3.3,3.3,0,0,0,2.692,9.423a3.84,3.84,0,0,0,.506.033A3.649,3.649,0,0,0,5.926,8.233a3.652,3.652,0,0,0,5.454,0,3.652,3.652,0,0,0,5.454,0,3.661,3.661,0,0,0,2.727,1.223,3.8,3.8,0,0,0,.506-.033A3.293,3.293,0,0,0,22.248,4.383Zm-2.679,6.26a4.689,4.689,0,0,1-1.09-.14V14.19H4.289V10.5a4.9,4.9,0,0,1-1.09.14,4.986,4.986,0,0,1-.665-.044,4.647,4.647,0,0,1-.606-.133v7.273A1.181,1.181,0,0,0,3.11,18.92H19.665a1.181,1.181,0,0,0,1.183-1.183V10.465a3.773,3.773,0,0,1-.606.133A5.139,5.139,0,0,1,19.569,10.643Z" transform="translate(-0.004)" fill="#707070"/>
</svg>
