<svg xmlns="http://www.w3.org/2000/svg" width="274.828" height="285.525" viewBox="0 0 274.828 285.525">
  <path id="Path_1" data-name="Path 1" d="M520.447,1077.121c50.742-73.668,107.581-96.37,128.721-118.8,99.509-108.841-85.756-232.586-128.962-63.105-43.072-99.359-143.552-24.995-70.8,53.819,17.392,18.842-20.809,45.28-17.426,64.815,3.289,18.98,34.774,48.7,88.462,63.275m-2.709-207.481c7.523-19.3,18.564-37.471,34.638-50.408,17.1-13.764,38.014-19.841,59.791-16.679,31.691,4.6,58.956,27.757,70.334,57.439,14.63,38.15.71,76.238-25.883,105.173-6.657,7.243-15.363,13.5-23.37,19.181-10.421,7.4-20.925,14.576-31.111,22.314-28.818,21.907-52.766,46.313-73.354,76.2a9.975,9.975,0,0,1-10.987,4.025c-23.489-6.377-47.349-16.767-66.68-31.754-12.035-9.332-26.39-23.916-29.1-39.562-2.21-12.771,6.21-25.221,12.7-35.5,2.884-4.571,9.821-15.055,9.08-20.662a6.318,6.318,0,0,0-1.82-3.518c-16.923-18.335-30.169-42.311-28.182-68,1.5-19.374,12.023-37.191,29.818-45.733,14.851-7.129,31.451-6.108,45.948,1.378C501.1,849.5,510.385,858.893,517.738,869.639Z" transform="translate(-413.596 -801.732)" fill="#fff" fill-rule="evenodd"/>
</svg>
